<svg width="35" height="31" viewBox="0 0 35 31" fill="none" xmlns="http://www.w3.org/2000/svg">
<g clip-path="url(#clip0_91_395)">
<path fill-rule="evenodd" clip-rule="evenodd" d="M17.6875 0.547852C8.17089 0.547852 0.477661 7.42693 0.477661 15.9373C0.477661 22.7401 5.40698 28.4985 12.2452 30.5366C13.1002 30.6898 13.4134 30.2054 13.4134 29.798C13.4134 29.4412 13.3852 28.2183 13.3852 26.9441C8.59784 27.8615 7.60092 25.1096 7.60092 25.1096C6.83156 23.326 5.69161 22.8676 5.69161 22.8676C4.12471 21.9249 5.80575 21.9249 5.80575 21.9249C7.54385 22.0268 8.45588 23.5046 8.45588 23.5046C9.99424 25.8485 12.4732 25.1862 13.4704 24.7785C13.6128 23.7847 14.069 23.0968 14.5533 22.7147C10.7351 22.358 6.71778 21.0331 6.71778 15.1218C6.71778 13.4402 7.40118 12.0644 8.48406 10.9944C8.31321 10.6123 7.7147 9.03225 8.65526 6.91756C8.65526 6.91756 10.1084 6.50982 13.3848 8.49725C14.7876 8.16038 16.2343 7.98902 17.6875 7.98757C19.1406 7.98757 20.6219 8.16612 21.9897 8.49725C25.2666 6.50982 26.7197 6.91756 26.7197 6.91756C27.6602 9.03225 27.0614 10.6123 26.8905 10.9944C28.0019 12.0644 28.6572 13.4402 28.6572 15.1218C28.6572 21.0331 24.6399 22.3323 20.7931 22.7147C21.4201 23.1988 21.9612 24.1159 21.9612 25.5683C21.9612 27.632 21.933 29.2883 21.933 29.7977C21.933 30.2054 22.2466 30.6898 23.1012 30.5369C29.9394 28.4982 34.8687 22.7401 34.8687 15.9373C34.8969 7.42693 27.1755 0.547852 17.6875 0.547852Z" fill="white"/>
</g>
<defs>
<clipPath id="clip0_91_395">
<rect width="34.5225" height="30.0178" fill="white" transform="translate(0.477661 0.547852)"/>
</clipPath>
</defs>
</svg>
