<svg width="40" height="40" viewBox="0 0 40 40" fill="none" xmlns="http://www.w3.org/2000/svg">
<rect width="40" height="40" rx="4" fill="#F7DF1E"/>
<path d="M21.75 29.5C23.5 29.5 24.75 28.5 24.75 26.75V21H22.5V26.5C22.5 27.25 22 27.5 21.5 27.5C20.75 27.5 20.25 27 19.75 26.25L18 27.25C18.75 28.75 20 29.5 21.75 29.5ZM28.5 29.5C30.75 29.5 32.25 28.25 32.25 26.25C32.25 24 30.75 23.25 28.75 22.5L28.25 22.25C27.25 21.75 26.75 21.5 26.75 20.75C26.75 20.25 27 19.75 27.75 19.75C28.5 19.75 29 20 29.25 20.75L30.75 19.75C30.25 18.5 29.25 18 27.75 18C25.75 18 24.5 19.25 24.5 20.75C24.5 23 26 23.75 27.5 24.25L28 24.5C29.25 25 29.75 25.5 29.75 26.25C29.75 27 29 27.5 28 27.5C26.75 27.5 26 26.75 25.5 26L24 27C24.75 28.5 26.25 29.5 28.5 29.5Z" fill="#000000"/>
</svg>