<svg width="33" height="29" viewBox="0 0 33 29" fill="none" xmlns="http://www.w3.org/2000/svg">
<path fill-rule="evenodd" clip-rule="evenodd" d="M28.27 27.7191H5.08775C3.25872 27.7191 1.776 26.4109 1.776 24.7971V4.34335C1.776 2.72959 3.25872 1.42139 5.08775 1.42139H28.27C30.0991 1.42139 31.5818 2.72959 31.5818 4.34335V24.7971C31.5818 26.4109 30.0991 27.7191 28.27 27.7191ZM23.0175 24.0667H27.4405V16.05C27.4405 12.658 25.2612 11.018 22.2172 11.018C19.1719 11.018 17.8902 13.1104 17.8902 13.1104V11.4048H13.6277V24.0667H17.8902V17.42C17.8902 15.639 18.8194 14.5792 20.5979 14.5792C22.2327 14.5792 23.0175 15.5976 23.0175 17.42V24.0667ZM5.91408 7.41037C5.91408 8.70065 7.0906 9.74684 8.54251 9.74684C9.99442 9.74684 11.1702 8.70065 11.1702 7.41037C11.1702 6.12008 9.99442 5.07389 8.54251 5.07389C7.0906 5.07389 5.91408 6.12008 5.91408 7.41037ZM10.7862 24.0667H6.34152V11.4048H10.7862V24.0667Z" fill="white"/>
</svg>
