<svg width="40" height="40" viewBox="0 0 40 40" fill="none" xmlns="http://www.w3.org/2000/svg">
<rect width="40" height="40" rx="4" fill="#CF649A"/>
<path d="M25 14C24 13 22 13 21 14C20 15 19 16 18 17C17 16 16 15 15 16C14 17 14 18 15 19C16 20 17 21 18 21C19 21 20 20 21 19C22 18 23 17 24 16C25 15 25 14 25 14Z" fill="#FFFFFF"/>
<path d="M28 22C27 21 26 21 25 22C24 23 24 24 25 25C26 26 27 26 28 25C29 24 29 23 28 22Z" fill="#FFFFFF"/>
<path d="M12 26C13 27 14 27 15 26C16 25 16 24 15 23C14 22 13 22 12 23C11 24 11 25 12 26Z" fill="#FFFFFF"/>
</svg>