<svg xmlns="http://www.w3.org/2000/svg" xmlns:xlink="http://www.w3.org/1999/xlink" width="75" zoomAndPan="magnify" viewBox="0 0 56.25 56.249997" height="75" preserveAspectRatio="xMidYMid meet" version="1.0"><defs><clipPath id="f49be9cdd4"><path d="M 0.546875 0.445312 L 55 0.445312 L 55 55 L 0.546875 55 Z M 0.546875 0.445312 " clip-rule="nonzero"/></clipPath></defs><g clip-path="url(#f49be9cdd4)"><path fill="#ffffff" d="M 40.492188 35.238281 C 40.480469 35.28125 40.46875 35.324219 40.457031 35.367188 C 40.339844 35.84375 40.164062 36.324219 39.980469 36.777344 C 39.960938 36.832031 39.9375 36.898438 39.917969 36.953125 C 39.90625 36.984375 39.894531 37.007812 39.882812 37.039062 C 39.871094 37.050781 39.871094 37.058594 39.871094 37.070312 C 39.851562 37.136719 39.820312 37.203125 39.796875 37.253906 C 39.699219 37.472656 39.613281 37.699219 39.515625 37.917969 C 39.136719 38.816406 38.636719 39.847656 38.765625 40.84375 C 38.90625 41.898438 39.992188 42.027344 40.847656 41.863281 C 42.269531 41.59375 43.679688 41.039062 44.992188 40.421875 C 46.921875 39.511719 48.753906 38.351562 50.285156 36.855469 C 52.171875 35 53.601562 32.679688 54.222656 30.097656 C 54.957031 27.027344 54.621094 23.816406 53.839844 20.78125 C 53.050781 17.703125 51.726562 14.761719 49.925781 12.136719 C 48.117188 9.503906 45.835938 7.171875 43.203125 5.335938 C 40.511719 3.484375 37.464844 2.117188 34.289062 1.355469 C 31.261719 0.628906 28.09375 0.445312 25.015625 0.804688 C 21.902344 1.195312 18.898438 2.105469 16.101562 3.484375 C 13.378906 4.816406 10.863281 6.628906 8.726562 8.796875 C 6.492188 11.097656 4.605469 13.765625 3.257812 16.691406 C 1.890625 19.6875 1.023438 22.894531 0.773438 26.183594 C 0.546875 29.230469 0.828125 32.332031 1.644531 35.269531 C 2.445312 38.1875 3.726562 40.964844 5.449219 43.449219 C 7.183594 45.941406 9.34375 48.15625 11.828125 49.921875 C 14.40625 51.765625 17.347656 53.144531 20.417969 53.96875 C 23.519531 54.804688 26.792969 55.0625 29.980469 54.738281 C 33.082031 54.421875 36.140625 53.554688 38.949219 52.199219 C 41.859375 50.789062 44.515625 48.914062 46.769531 46.59375 C 49.003906 44.292969 50.859375 41.625 52.183594 38.699219 C 52.300781 38.449219 52.410156 38.144531 52.355469 37.863281 C 52.3125 37.644531 52.160156 37.417969 51.933594 37.375 C 51.367188 37.253906 50.738281 37.785156 50.523438 38.273438 C 50.207031 38.980469 49.851562 39.675781 49.472656 40.347656 C 49.277344 40.695312 49.082031 41.03125 48.863281 41.367188 C 48.84375 41.410156 48.820312 41.441406 48.796875 41.472656 C 48.777344 41.519531 48.746094 41.5625 48.722656 41.59375 C 48.613281 41.765625 48.496094 41.929688 48.386719 42.09375 C 47.953125 42.710938 47.496094 43.316406 47.019531 43.894531 C 46.78125 44.175781 46.542969 44.445312 46.304688 44.71875 C 46.292969 44.726562 46.28125 44.738281 46.28125 44.738281 C 46.21875 44.804688 46.152344 44.878906 46.085938 44.945312 C 45.945312 45.085938 45.816406 45.226562 45.675781 45.367188 C 45.15625 45.898438 44.601562 46.398438 44.027344 46.875 C 43.746094 47.113281 43.453125 47.339844 43.160156 47.570312 C 43.148438 47.582031 43.148438 47.582031 43.136719 47.589844 C 43.074219 47.632812 43.007812 47.6875 42.941406 47.730469 C 42.78125 47.851562 42.628906 47.960938 42.464844 48.078125 C 41.859375 48.503906 41.238281 48.902344 40.597656 49.273438 C 40.285156 49.457031 39.960938 49.640625 39.632812 49.804688 C 39.472656 49.890625 39.308594 49.976562 39.144531 50.054688 C 39.113281 50.0625 39.09375 50.085938 39.058594 50.097656 C 39.039062 50.105469 39.027344 50.105469 39.015625 50.117188 C 38.960938 50.140625 38.90625 50.171875 38.84375 50.195312 C 37.496094 50.824219 36.085938 51.34375 34.65625 51.746094 C 34.308594 51.84375 33.960938 51.929688 33.605469 52.003906 C 33.5625 52.015625 33.527344 52.027344 33.484375 52.027344 C 33.410156 52.046875 33.324219 52.058594 33.246094 52.082031 C 33.050781 52.125 32.855469 52.15625 32.660156 52.191406 C 31.914062 52.320312 31.164062 52.429688 30.40625 52.492188 C 29.65625 52.558594 28.910156 52.601562 28.148438 52.601562 C 27.769531 52.601562 27.390625 52.601562 27.011719 52.578125 C 26.816406 52.570312 26.628906 52.558594 26.433594 52.546875 C 26.414062 52.546875 26.328125 52.535156 26.273438 52.535156 C 26.25 52.535156 26.207031 52.535156 26.195312 52.535156 C 26.144531 52.535156 26.078125 52.527344 26.023438 52.527344 C 24.460938 52.382812 22.921875 52.113281 21.414062 51.703125 C 19.929688 51.300781 18.484375 50.757812 17.097656 50.097656 C 17.085938 50.097656 17.066406 50.085938 17.042969 50.074219 C 17.023438 50.0625 16.988281 50.054688 16.976562 50.042969 C 16.890625 50 16.816406 49.957031 16.730469 49.910156 C 16.554688 49.824219 16.371094 49.726562 16.199219 49.640625 C 15.871094 49.46875 15.546875 49.28125 15.222656 49.097656 C 14.59375 48.71875 13.972656 48.316406 13.367188 47.894531 C 12.183594 47.046875 11.066406 46.105469 10.046875 45.074219 C 9.796875 44.816406 9.550781 44.554688 9.300781 44.292969 C 9.179688 44.164062 9.0625 44.023438 8.941406 43.894531 C 8.898438 43.839844 8.855469 43.785156 8.8125 43.742188 C 8.832031 43.773438 8.726562 43.644531 8.691406 43.601562 C 8.226562 43.035156 7.78125 42.460938 7.359375 41.863281 C 6.535156 40.683594 5.796875 39.433594 5.179688 38.132812 C 4.863281 37.492188 4.582031 36.832031 4.332031 36.160156 C 4.265625 36.007812 4.214844 35.84375 4.160156 35.683594 C 4.125 35.597656 4.105469 35.519531 4.074219 35.433594 C 4.0625 35.390625 4.039062 35.347656 4.027344 35.304688 C 3.921875 34.96875 3.8125 34.621094 3.714844 34.273438 C 3.3125 32.882812 3.03125 31.476562 2.867188 30.03125 C 2.824219 29.664062 2.792969 29.285156 2.769531 28.914062 C 2.761719 28.742188 2.75 28.578125 2.738281 28.40625 C 2.738281 28.320312 2.726562 28.222656 2.726562 28.132812 C 2.726562 28.125 2.726562 28.113281 2.726562 28.101562 C 2.726562 28.070312 2.726562 28.046875 2.726562 28.015625 C 2.707031 27.277344 2.726562 26.550781 2.769531 25.8125 C 2.8125 25.074219 2.890625 24.339844 3 23.601562 C 3.054688 23.222656 3.117188 22.84375 3.195312 22.460938 L 3.195312 22.441406 C 3.214844 22.34375 3.238281 22.257812 3.25 22.160156 C 3.292969 21.964844 3.335938 21.769531 3.378906 21.574219 C 3.5625 20.824219 3.769531 20.085938 4.019531 19.371094 C 4.136719 19.011719 4.265625 18.644531 4.410156 18.285156 C 4.472656 18.125 4.539062 17.960938 4.605469 17.796875 C 4.613281 17.789062 4.613281 17.765625 4.625 17.753906 C 4.667969 17.65625 4.710938 17.558594 4.753906 17.460938 C 5.058594 16.78125 5.382812 16.105469 5.753906 15.445312 C 5.925781 15.121094 6.121094 14.792969 6.304688 14.480469 C 6.382812 14.351562 6.457031 14.242188 6.535156 14.113281 C 6.535156 14.113281 6.535156 14.121094 6.523438 14.121094 C 6.535156 14.101562 6.546875 14.078125 6.554688 14.066406 C 6.546875 14.078125 6.535156 14.101562 6.535156 14.113281 C 6.554688 14.078125 6.578125 14.058594 6.589844 14.023438 C 6.589844 14.015625 6.597656 14.015625 6.597656 14.003906 C 6.621094 13.96875 6.644531 13.9375 6.652344 13.917969 C 6.695312 13.851562 6.730469 13.796875 6.773438 13.730469 C 7.183594 13.125 7.617188 12.539062 8.074219 11.964844 C 8.300781 11.683594 8.539062 11.398438 8.777344 11.128906 C 8.867188 11.03125 8.941406 10.945312 9.027344 10.847656 C 9.050781 10.835938 9.105469 10.761719 9.117188 10.75 C 9.179688 10.671875 9.257812 10.597656 9.320312 10.53125 C 9.832031 10 10.351562 9.492188 10.90625 9.015625 C 11.175781 8.777344 11.445312 8.546875 11.730469 8.320312 C 11.859375 8.210938 11.988281 8.113281 12.121094 8.003906 C 12.128906 7.996094 12.207031 7.941406 12.25 7.90625 C 12.304688 7.875 12.359375 7.832031 12.378906 7.808594 C 13.53125 6.953125 14.753906 6.207031 16.023438 5.554688 C 16.101562 5.511719 16.1875 5.476562 16.261719 5.433594 C 16.296875 5.425781 16.316406 5.402344 16.347656 5.390625 C 16.492188 5.328125 16.640625 5.25 16.792969 5.1875 C 17.121094 5.035156 17.445312 4.894531 17.78125 4.761719 C 18.453125 4.492188 19.136719 4.242188 19.832031 4.023438 C 20.175781 3.917969 20.515625 3.820312 20.859375 3.722656 C 21.023438 3.679688 21.1875 3.636719 21.347656 3.589844 C 21.4375 3.570312 21.523438 3.546875 21.609375 3.527344 C 21.652344 3.515625 21.695312 3.503906 21.738281 3.492188 C 22.445312 3.34375 23.160156 3.210938 23.875 3.113281 C 25.320312 2.917969 26.78125 2.84375 28.234375 2.898438 C 28.421875 2.90625 28.605469 2.90625 28.789062 2.917969 C 28.863281 2.917969 28.953125 2.929688 29.027344 2.929688 C 29.070312 2.929688 29.101562 2.929688 29.148438 2.941406 C 29.15625 2.941406 29.167969 2.941406 29.179688 2.941406 C 29.546875 2.972656 29.917969 3.003906 30.285156 3.050781 C 31.035156 3.148438 31.769531 3.265625 32.5 3.417969 C 34.039062 3.742188 35.535156 4.210938 36.988281 4.804688 C 37.355469 4.957031 37.714844 5.121094 38.074219 5.285156 C 38.117188 5.304688 38.160156 5.328125 38.203125 5.347656 C 38.214844 5.347656 38.246094 5.371094 38.277344 5.382812 C 38.300781 5.390625 38.332031 5.402344 38.34375 5.414062 C 38.386719 5.433594 38.429688 5.457031 38.472656 5.476562 C 38.660156 5.574219 38.84375 5.664062 39.027344 5.761719 C 39.710938 6.128906 40.382812 6.519531 41.035156 6.941406 C 42.3125 7.777344 43.527344 8.742188 44.632812 9.796875 C 45.1875 10.316406 45.71875 10.867188 46.21875 11.433594 C 46.28125 11.507812 46.347656 11.574219 46.402344 11.648438 C 46.421875 11.671875 46.445312 11.703125 46.46875 11.726562 C 46.476562 11.734375 46.476562 11.734375 46.488281 11.746094 C 46.609375 11.886719 46.726562 12.039062 46.847656 12.179688 C 47.097656 12.484375 47.335938 12.789062 47.5625 13.101562 C 48.453125 14.316406 49.242188 15.609375 49.925781 16.964844 C 50.273438 17.648438 50.578125 18.351562 50.859375 19.058594 C 51 19.402344 51.128906 19.75 51.25 20.109375 L 51.25 20.097656 C 51.25 20.109375 51.25 20.109375 51.261719 20.121094 C 51.261719 20.128906 51.269531 20.164062 51.28125 20.175781 C 51.292969 20.195312 51.292969 20.207031 51.304688 20.226562 C 51.324219 20.304688 51.359375 20.378906 51.378906 20.464844 C 51.445312 20.660156 51.5 20.847656 51.554688 21.042969 C 51.988281 22.496094 52.289062 23.980469 52.464844 25.476562 C 52.507812 25.855469 52.550781 26.246094 52.574219 26.628906 C 52.582031 26.722656 52.582031 26.8125 52.582031 26.910156 C 52.582031 26.941406 52.582031 26.972656 52.582031 26.996094 C 52.582031 27.191406 52.582031 27.386719 52.582031 27.582031 C 52.574219 28.265625 52.519531 28.957031 52.398438 29.640625 C 52.386719 29.71875 52.367188 29.804688 52.355469 29.878906 L 52.355469 29.890625 C 52.324219 30.054688 52.289062 30.207031 52.246094 30.359375 C 52.171875 30.660156 52.085938 30.953125 51.988281 31.246094 C 51.945312 31.386719 51.890625 31.527344 51.835938 31.671875 C 51.8125 31.734375 51.792969 31.789062 51.757812 31.855469 C 51.757812 31.855469 51.757812 31.855469 51.757812 31.867188 C 51.640625 32.136719 51.519531 32.40625 51.378906 32.667969 C 51.25 32.917969 51.109375 33.167969 50.957031 33.40625 C 50.945312 33.417969 50.933594 33.4375 50.925781 33.46875 C 50.914062 33.480469 50.914062 33.492188 50.902344 33.503906 C 50.816406 33.621094 50.738281 33.742188 50.652344 33.859375 C 50.492188 34.078125 50.328125 34.292969 50.15625 34.511719 C 50.078125 34.609375 49.992188 34.707031 49.90625 34.804688 C 49.871094 34.847656 49.828125 34.890625 49.796875 34.921875 C 49.449219 35.292969 49.082031 35.648438 48.691406 35.988281 C 48.503906 36.148438 48.3125 36.300781 48.117188 36.464844 C 48.148438 36.441406 48.167969 36.421875 48.167969 36.421875 C 48.148438 36.453125 48.082031 36.484375 48.050781 36.519531 L 48.039062 36.527344 C 47.972656 36.582031 48.007812 36.550781 48.050781 36.519531 C 48.039062 36.519531 48.039062 36.527344 48.027344 36.527344 C 47.929688 36.605469 47.832031 36.667969 47.726562 36.746094 C 46.964844 37.277344 46.164062 37.742188 45.339844 38.167969 C 45.316406 38.175781 45.296875 38.1875 45.285156 38.199219 C 45.199219 38.242188 45.101562 38.285156 45.011719 38.328125 C 44.828125 38.414062 44.644531 38.492188 44.460938 38.578125 C 44.136719 38.71875 43.820312 38.851562 43.484375 38.96875 C 43.019531 39.140625 42.539062 39.304688 42.0625 39.445312 C 41.910156 39.488281 41.761719 39.53125 41.609375 39.578125 C 41.542969 39.585938 41.488281 39.597656 41.421875 39.609375 C 41.316406 39.628906 41.207031 39.640625 41.085938 39.652344 C 41.042969 39.652344 41 39.652344 40.96875 39.652344 C 40.914062 39.640625 40.847656 39.640625 40.792969 39.621094 L 40.785156 39.621094 C 40.785156 39.609375 40.773438 39.597656 40.773438 39.585938 C 40.773438 39.585938 40.773438 39.585938 40.773438 39.578125 L 40.773438 39.566406 C 40.773438 39.554688 40.773438 39.554688 40.773438 39.542969 C 40.773438 39.542969 40.773438 39.53125 40.773438 39.53125 C 40.773438 39.53125 40.773438 39.523438 40.785156 39.511719 C 40.785156 39.5 40.785156 39.488281 40.792969 39.480469 C 40.792969 39.480469 40.792969 39.488281 40.792969 39.5 C 40.792969 39.480469 40.792969 39.457031 40.804688 39.433594 C 40.816406 39.414062 40.816406 39.390625 40.828125 39.371094 C 40.882812 39.1875 40.9375 39 41 38.816406 C 41.035156 38.71875 41.066406 38.632812 41.109375 38.535156 C 41.132812 38.480469 41.152344 38.4375 41.175781 38.382812 C 41.183594 38.371094 41.195312 38.339844 41.207031 38.308594 L 41.207031 38.296875 C 41.230469 38.242188 41.25 38.1875 41.273438 38.132812 C 41.328125 38.015625 41.371094 37.894531 41.421875 37.777344 C 41.554688 37.460938 41.683594 37.15625 41.8125 36.84375 C 42 36.386719 42.171875 35.933594 42.3125 35.464844 C 42.59375 34.5 42.789062 33.363281 42.300781 32.417969 C 41.945312 31.734375 41.316406 31.136719 40.535156 31.007812 C 39.625 30.855469 38.765625 31.160156 37.964844 31.574219 C 37.117188 32.007812 36.347656 32.613281 35.632812 33.242188 C 34.820312 33.957031 34.070312 34.738281 33.34375 35.542969 C 32.953125 35.976562 32.5625 36.421875 32.183594 36.863281 C 32.5 36.148438 32.8125 35.433594 33.136719 34.726562 C 33.179688 34.628906 33.226562 34.542969 33.269531 34.445312 C 35.1875 32.90625 36.964844 31.214844 38.605469 29.371094 C 40.394531 27.34375 42 25.121094 43.257812 22.734375 C 43.746094 21.8125 44.167969 20.867188 44.515625 19.890625 C 44.765625 19.175781 44.980469 18.429688 45.058594 17.679688 C 45.109375 17.179688 45.121094 16.5625 44.839844 16.117188 C 44.503906 15.585938 43.875 15.554688 43.332031 15.769531 C 42.550781 16.085938 41.945312 16.703125 41.390625 17.320312 C 40.773438 18.003906 40.230469 18.742188 39.699219 19.5 C 38.234375 21.59375 36.933594 23.808594 35.699219 26.042969 C 34.417969 28.339844 33.214844 30.671875 32.074219 33.046875 C 32.019531 33.15625 31.976562 33.265625 31.921875 33.363281 C 31.890625 33.382812 31.859375 33.417969 31.824219 33.4375 C 31.804688 33.449219 31.792969 33.460938 31.78125 33.46875 C 31.066406 34.011719 30.328125 34.535156 29.570312 35.019531 C 29.417969 35.117188 29.253906 35.207031 29.09375 35.28125 C 29.015625 35.3125 28.953125 35.359375 28.875 35.390625 C 28.832031 35.410156 28.789062 35.433594 28.746094 35.457031 C 28.386719 35.628906 28.03125 35.800781 27.660156 35.964844 C 26.023438 36.714844 24.351562 37.394531 22.640625 37.972656 C 21.71875 38.285156 20.796875 38.566406 19.851562 38.816406 C 19.625 38.871094 19.40625 38.9375 19.179688 38.992188 C 19.0625 39.023438 18.941406 39.042969 18.820312 39.078125 C 18.757812 39.089844 18.703125 39.109375 18.636719 39.121094 C 18.617188 39.121094 18.605469 39.132812 18.59375 39.132812 C 18.59375 39.132812 18.582031 39.132812 18.574219 39.132812 C 18.085938 39.230469 17.597656 39.335938 17.109375 39.425781 C 16.152344 39.585938 15.1875 39.726562 14.222656 39.78125 C 13.941406 39.804688 13.660156 39.804688 13.378906 39.792969 C 13.367188 39.792969 13.34375 39.792969 13.324219 39.792969 C 13.269531 39.792969 13.214844 39.792969 13.191406 39.78125 C 13.191406 39.78125 13.191406 39.78125 13.214844 39.78125 C 13.097656 39.773438 12.976562 39.75 12.855469 39.726562 C 12.652344 39.695312 12.445312 39.640625 12.25 39.578125 C 12.175781 39.542969 12.097656 39.511719 12.023438 39.480469 C 11.988281 39.457031 11.957031 39.445312 11.925781 39.425781 C 11.785156 39.335938 11.652344 39.238281 11.523438 39.132812 C 11.5 39.109375 11.492188 39.097656 11.46875 39.078125 C 11.46875 39.078125 11.46875 39.089844 11.46875 39.089844 C 11.46875 39.089844 11.46875 39.097656 11.480469 39.097656 C 11.480469 39.097656 11.480469 39.097656 11.46875 39.089844 C 11.46875 39.078125 11.457031 39.078125 11.457031 39.066406 C 11.445312 39.054688 11.4375 39.042969 11.425781 39.035156 C 11.394531 39 11.382812 38.96875 11.382812 38.957031 C 11.371094 38.9375 11.347656 38.925781 11.339844 38.902344 C 11.261719 38.785156 11.207031 38.65625 11.15625 38.535156 C 11.144531 38.511719 11.144531 38.492188 11.132812 38.46875 C 11.109375 38.394531 11.101562 38.316406 11.089844 38.230469 C 11.078125 38.15625 11.066406 38.089844 11.066406 38.015625 C 11.066406 37.992188 11.066406 37.972656 11.066406 37.949219 C 11.066406 37.777344 11.089844 37.589844 11.109375 37.417969 C 11.109375 37.394531 11.121094 37.363281 11.121094 37.34375 C 11.144531 37.265625 11.15625 37.191406 11.175781 37.113281 C 11.230469 36.917969 11.296875 36.734375 11.359375 36.539062 C 11.359375 36.527344 11.371094 36.507812 11.371094 36.496094 C 12.5625 36.550781 13.746094 36.300781 14.875 35.921875 C 16.207031 35.464844 17.5 34.792969 18.574219 33.871094 C 19.496094 33.078125 20.546875 31.734375 20.035156 30.457031 C 19.691406 29.578125 18.605469 29.273438 17.75 29.25 C 16.828125 29.230469 15.925781 29.597656 15.125 30.023438 C 14.246094 30.488281 13.441406 31.128906 12.726562 31.820312 C 11.21875 33.296875 9.875 35.152344 9.289062 37.203125 C 9.050781 38.027344 8.910156 38.980469 9.160156 39.816406 C 9.417969 40.695312 9.984375 41.289062 10.808594 41.660156 C 11.835938 42.113281 13.050781 42.058594 14.136719 41.960938 C 16.230469 41.757812 18.3125 41.324219 20.328125 40.746094 C 22.207031 40.214844 24.039062 39.554688 25.828125 38.804688 C 26.621094 38.46875 27.410156 38.121094 28.191406 37.753906 C 28.617188 37.558594 29.039062 37.351562 29.449219 37.148438 C 29.808594 36.972656 30.132812 36.746094 30.46875 36.519531 C 30.144531 37.265625 29.839844 38.027344 29.570312 38.785156 C 29.363281 39.335938 29.15625 39.933594 29.09375 40.53125 C 29.058594 40.84375 29.082031 41.246094 29.351562 41.464844 C 29.777344 41.800781 30.371094 41.429688 30.699219 41.128906 C 31.140625 40.726562 31.511719 40.238281 31.878906 39.78125 C 32.421875 39.121094 32.964844 38.460938 33.515625 37.808594 C 33.820312 37.449219 34.136719 37.09375 34.449219 36.746094 C 34.449219 36.734375 34.460938 36.734375 34.484375 36.714844 C 34.472656 36.722656 34.460938 36.734375 34.449219 36.746094 C 34.429688 36.765625 34.515625 36.679688 34.558594 36.625 C 34.570312 36.617188 34.589844 36.59375 34.601562 36.570312 C 34.679688 36.484375 34.765625 36.398438 34.839844 36.324219 C 35.015625 36.136719 35.199219 35.953125 35.382812 35.769531 C 35.742188 35.410156 36.097656 35.066406 36.476562 34.738281 C 36.664062 34.578125 36.847656 34.425781 37.03125 34.273438 C 37.0625 34.25 37.097656 34.21875 37.128906 34.195312 C 37.203125 34.144531 37.28125 34.089844 37.355469 34.035156 C 37.53125 33.914062 37.714844 33.796875 37.898438 33.6875 C 37.984375 33.632812 38.074219 33.589844 38.160156 33.546875 C 38.179688 33.535156 38.214844 33.515625 38.234375 33.503906 C 38.386719 33.425781 38.550781 33.371094 38.710938 33.320312 C 38.789062 33.296875 38.875 33.273438 38.949219 33.253906 C 38.875 33.273438 38.820312 33.296875 38.800781 33.308594 C 38.84375 33.296875 38.941406 33.265625 38.996094 33.265625 C 39.070312 33.253906 39.144531 33.253906 39.222656 33.242188 C 39.242188 33.242188 39.265625 33.242188 39.289062 33.242188 C 39.429688 33.265625 39.558594 33.285156 39.6875 33.339844 L 39.699219 33.339844 C 39.65625 33.320312 39.632812 33.296875 39.710938 33.339844 L 39.722656 33.351562 C 39.730469 33.363281 39.742188 33.363281 39.753906 33.363281 C 39.742188 33.363281 39.730469 33.351562 39.730469 33.351562 C 39.753906 33.363281 39.773438 33.371094 39.785156 33.371094 C 39.773438 33.371094 39.765625 33.371094 39.753906 33.363281 C 39.808594 33.394531 39.851562 33.425781 39.90625 33.46875 C 39.96875 33.515625 40.023438 33.566406 40.089844 33.621094 C 40.113281 33.644531 40.132812 33.664062 40.15625 33.6875 C 40.261719 33.839844 40.371094 33.992188 40.457031 34.164062 C 40.46875 34.195312 40.480469 34.230469 40.503906 34.261719 C 40.523438 34.347656 40.546875 34.4375 40.554688 34.523438 C 40.554688 34.554688 40.566406 34.585938 40.566406 34.621094 C 40.566406 34.71875 40.554688 34.816406 40.554688 34.914062 C 40.523438 35.042969 40.511719 35.140625 40.492188 35.238281 Z M 39.9375 36.898438 C 39.9375 36.886719 39.949219 36.875 39.949219 36.863281 C 39.960938 36.863281 39.949219 36.875 39.9375 36.898438 Z M 41.023438 39.695312 C 41.011719 39.695312 41 39.695312 40.988281 39.683594 C 41 39.683594 41.011719 39.683594 41.023438 39.695312 Z M 40.96875 39.683594 C 40.804688 39.683594 40.882812 39.675781 40.96875 39.683594 Z M 36.476562 28.070312 C 37.097656 26.917969 37.726562 25.78125 38.375 24.664062 C 38.691406 24.132812 39.003906 23.601562 39.320312 23.070312 C 39.472656 22.820312 39.632812 22.558594 39.785156 22.308594 C 39.863281 22.191406 39.9375 22.0625 40.015625 21.941406 C 40.035156 21.910156 40.058594 21.875 40.066406 21.84375 C 40.066406 21.832031 40.078125 21.832031 40.078125 21.824219 C 40.632812 20.964844 41.207031 20.121094 41.835938 19.316406 C 42.074219 19.003906 42.324219 18.710938 42.585938 18.417969 C 42.636719 18.351562 42.703125 18.296875 42.769531 18.234375 C 42.855469 18.15625 42.929688 18.082031 43.019531 18.003906 C 43.019531 18.027344 43.019531 18.039062 43.027344 18.058594 C 43.027344 18.082031 43.027344 18.101562 43.039062 18.125 C 43.039062 18.144531 43.039062 18.15625 43.039062 18.15625 C 43.027344 18.210938 43.027344 18.265625 43.019531 18.296875 C 43.007812 18.429688 42.996094 18.558594 42.976562 18.6875 C 42.964844 18.742188 42.929688 18.816406 42.929688 18.882812 C 42.898438 19.046875 42.855469 19.207031 42.800781 19.371094 C 42.691406 19.738281 42.5625 20.109375 42.433594 20.46875 C 42.398438 20.542969 42.367188 20.628906 42.335938 20.707031 C 42.324219 20.738281 42.300781 20.78125 42.292969 20.8125 C 42.195312 21.03125 42.097656 21.257812 41.988281 21.476562 C 41.519531 22.453125 40.988281 23.382812 40.414062 24.296875 C 40.382812 24.347656 40.351562 24.402344 40.308594 24.457031 C 40.21875 24.589844 40.132812 24.71875 40.046875 24.847656 C 39.863281 25.109375 39.6875 25.367188 39.492188 25.628906 C 39.101562 26.171875 38.691406 26.714844 38.257812 27.234375 C 38.027344 27.503906 37.800781 27.789062 37.574219 28.046875 C 37.453125 28.1875 37.335938 28.320312 37.214844 28.460938 C 37.152344 28.523438 37.097656 28.601562 37.03125 28.664062 C 37.007812 28.6875 36.921875 28.785156 36.878906 28.828125 C 36.859375 28.851562 36.847656 28.859375 36.835938 28.871094 C 36.769531 28.9375 36.707031 29.011719 36.640625 29.078125 C 36.5 29.230469 36.359375 29.371094 36.21875 29.523438 C 35.945312 29.804688 35.664062 30.074219 35.382812 30.347656 C 35.296875 30.433594 35.199219 30.519531 35.113281 30.605469 C 35.589844 29.761719 36.035156 28.914062 36.476562 28.070312 Z M 18.160156 32.125 C 18.160156 32.113281 18.160156 32.113281 18.160156 32.105469 C 18.160156 32.113281 18.160156 32.125 18.160156 32.125 C 18.160156 32.148438 18.160156 32.15625 18.160156 32.167969 C 18.160156 32.15625 18.160156 32.148438 18.160156 32.125 Z M 18.128906 32.113281 C 18.105469 32.203125 18.117188 32.15625 18.128906 32.113281 Z M 18.117188 32.070312 C 18.117188 32.058594 18.117188 32.070312 18.117188 32.070312 Z M 13.246094 33.675781 C 13.269531 33.65625 13.289062 33.632812 13.3125 33.613281 C 13.386719 33.523438 13.464844 33.449219 13.550781 33.363281 C 13.714844 33.199219 13.886719 33.046875 14.0625 32.894531 C 14.148438 32.820312 14.234375 32.742188 14.320312 32.679688 C 14.355469 32.644531 14.386719 32.625 14.429688 32.59375 C 14.582031 32.484375 14.746094 32.363281 14.90625 32.265625 C 15.089844 32.148438 15.277344 32.039062 15.472656 31.941406 C 15.480469 31.929688 15.503906 31.929688 15.515625 31.917969 C 15.601562 31.875 15.6875 31.84375 15.785156 31.800781 C 15.957031 31.734375 16.144531 31.671875 16.316406 31.617188 C 16.328125 31.617188 16.339844 31.605469 16.359375 31.605469 C 16.445312 31.59375 16.535156 31.574219 16.621094 31.5625 C 16.75 31.550781 16.890625 31.550781 17.023438 31.550781 C 17.03125 31.550781 17.03125 31.550781 17.042969 31.550781 C 17.074219 31.550781 17.128906 31.550781 17.171875 31.5625 C 17.261719 31.574219 17.347656 31.59375 17.421875 31.617188 C 17.5 31.636719 17.5625 31.660156 17.640625 31.691406 C 17.671875 31.703125 17.703125 31.714844 17.738281 31.722656 L 17.75 31.734375 C 17.835938 31.789062 17.910156 31.832031 17.988281 31.898438 C 18.019531 31.917969 18.042969 31.941406 18.0625 31.972656 C 18.0625 31.972656 18.0625 31.972656 18.0625 31.984375 C 18.074219 31.984375 18.09375 32.007812 18.105469 32.039062 L 18.09375 32.050781 C 18.09375 32.050781 18.09375 32.050781 18.09375 32.058594 C 18.074219 32.082031 18.050781 32.113281 18.03125 32.136719 C 18.03125 32.136719 18.019531 32.148438 18.019531 32.148438 L 18.007812 32.15625 C 17.953125 32.222656 17.847656 32.320312 17.921875 32.234375 C 17.847656 32.300781 17.769531 32.375 17.695312 32.441406 C 17.652344 32.484375 17.597656 32.515625 17.554688 32.558594 C 17.457031 32.625 17.367188 32.691406 17.269531 32.753906 C 17.03125 32.917969 16.78125 33.058594 16.523438 33.199219 C 16.457031 33.230469 16.382812 33.273438 16.316406 33.308594 C 16.304688 33.308594 16.304688 33.320312 16.296875 33.320312 C 16.261719 33.328125 16.144531 33.394531 16.121094 33.40625 C 16.046875 33.4375 15.96875 33.46875 15.90625 33.503906 C 15.613281 33.632812 15.320312 33.742188 15.015625 33.839844 C 14.722656 33.9375 14.429688 34.023438 14.125 34.097656 L 14.113281 34.097656 C 14.105469 34.097656 14.09375 34.109375 14.082031 34.109375 C 14.0625 34.109375 14.039062 34.121094 14.027344 34.121094 C 13.972656 34.132812 13.910156 34.144531 13.855469 34.152344 C 13.703125 34.1875 13.5625 34.207031 13.410156 34.230469 C 13.183594 34.261719 12.964844 34.285156 12.738281 34.292969 C 12.910156 34.089844 13.085938 33.894531 13.246094 33.675781 Z M 13.246094 33.675781 " fill-opacity="1" fill-rule="nonzero"/><path fill="#ffffff" d="M 40.492188 35.238281 C 40.480469 35.28125 40.46875 35.324219 40.457031 35.367188 C 40.339844 35.84375 40.164062 36.324219 39.980469 36.777344 C 39.960938 36.832031 39.9375 36.898438 39.917969 36.953125 C 39.90625 36.984375 39.894531 37.007812 39.882812 37.039062 C 39.871094 37.050781 39.871094 37.058594 39.871094 37.070312 C 39.851562 37.136719 39.820312 37.203125 39.796875 37.253906 C 39.699219 37.472656 39.613281 37.699219 39.515625 37.917969 C 39.136719 38.816406 38.636719 39.847656 38.765625 40.84375 C 38.90625 41.898438 39.992188 42.027344 40.847656 41.863281 C 42.269531 41.59375 43.679688 41.039062 44.992188 40.421875 C 46.921875 39.511719 48.753906 38.351562 50.285156 36.855469 C 52.171875 35 53.601562 32.679688 54.222656 30.097656 C 54.957031 27.027344 54.621094 23.816406 53.839844 20.78125 C 53.050781 17.703125 51.726562 14.761719 49.925781 12.136719 C 48.117188 9.503906 45.835938 7.171875 43.203125 5.335938 C 40.511719 3.484375 37.464844 2.117188 34.289062 1.355469 C 31.261719 0.628906 28.09375 0.445312 25.015625 0.804688 C 21.902344 1.195312 18.898438 2.105469 16.101562 3.484375 C 13.378906 4.816406 10.863281 6.628906 8.726562 8.796875 C 6.492188 11.097656 4.605469 13.765625 3.257812 16.691406 C 1.890625 19.6875 1.023438 22.894531 0.773438 26.183594 C 0.546875 29.230469 0.828125 32.332031 1.644531 35.269531 C 2.445312 38.1875 3.726562 40.964844 5.449219 43.449219 C 7.183594 45.941406 9.34375 48.15625 11.828125 49.921875 C 14.40625 51.765625 17.347656 53.144531 20.417969 53.96875 C 23.519531 54.804688 26.792969 55.0625 29.980469 54.738281 C 33.082031 54.421875 36.140625 53.554688 38.949219 52.199219 C 41.859375 50.789062 44.515625 48.914062 46.769531 46.59375 C 49.003906 44.292969 50.859375 41.625 52.183594 38.699219 C 52.300781 38.449219 52.410156 38.144531 52.355469 37.863281 C 52.3125 37.644531 52.160156 37.417969 51.933594 37.375 C 51.367188 37.253906 50.738281 37.785156 50.523438 38.273438 C 50.207031 38.980469 49.851562 39.675781 49.472656 40.347656 C 49.277344 40.695312 49.082031 41.03125 48.863281 41.367188 C 48.84375 41.410156 48.820312 41.441406 48.796875 41.472656 C 48.777344 41.519531 48.746094 41.5625 48.722656 41.59375 C 48.613281 41.765625 48.496094 41.929688 48.386719 42.09375 C 47.953125 42.710938 47.496094 43.316406 47.019531 43.894531 C 46.78125 44.175781 46.542969 44.445312 46.304688 44.71875 C 46.292969 44.726562 46.28125 44.738281 46.28125 44.738281 C 46.21875 44.804688 46.152344 44.878906 46.085938 44.945312 C 45.945312 45.085938 45.816406 45.226562 45.675781 45.367188 C 45.15625 45.898438 44.601562 46.398438 44.027344 46.875 C 43.746094 47.113281 43.453125 47.339844 43.160156 47.570312 C 43.148438 47.582031 43.148438 47.582031 43.136719 47.589844 C 43.074219 47.632812 43.007812 47.6875 42.941406 47.730469 C 42.78125 47.851562 42.628906 47.960938 42.464844 48.078125 C 41.859375 48.503906 41.238281 48.902344 40.597656 49.273438 C 40.285156 49.457031 39.960938 49.640625 39.632812 49.804688 C 39.472656 49.890625 39.308594 49.976562 39.144531 50.054688 C 39.113281 50.0625 39.09375 50.085938 39.058594 50.097656 C 39.039062 50.105469 39.027344 50.105469 39.015625 50.117188 C 38.960938 50.140625 38.90625 50.171875 38.84375 50.195312 C 37.496094 50.824219 36.085938 51.34375 34.65625 51.746094 C 34.308594 51.84375 33.960938 51.929688 33.605469 52.003906 C 33.5625 52.015625 33.527344 52.027344 33.484375 52.027344 C 33.410156 52.046875 33.324219 52.058594 33.246094 52.082031 C 33.050781 52.125 32.855469 52.15625 32.660156 52.191406 C 31.914062 52.320312 31.164062 52.429688 30.40625 52.492188 C 29.65625 52.558594 28.910156 52.601562 28.148438 52.601562 C 27.769531 52.601562 27.390625 52.601562 27.011719 52.578125 C 26.816406 52.570312 26.628906 52.558594 26.433594 52.546875 C 26.414062 52.546875 26.328125 52.535156 26.273438 52.535156 C 26.25 52.535156 26.207031 52.535156 26.195312 52.535156 C 26.144531 52.535156 26.078125 52.527344 26.023438 52.527344 C 24.460938 52.382812 22.921875 52.113281 21.414062 51.703125 C 19.929688 51.300781 18.484375 50.757812 17.097656 50.097656 C 17.085938 50.097656 17.066406 50.085938 17.042969 50.074219 C 17.023438 50.0625 16.988281 50.054688 16.976562 50.042969 C 16.890625 50 16.816406 49.957031 16.730469 49.910156 C 16.554688 49.824219 16.371094 49.726562 16.199219 49.640625 C 15.871094 49.46875 15.546875 49.28125 15.222656 49.097656 C 14.59375 48.71875 13.972656 48.316406 13.367188 47.894531 C 12.183594 47.046875 11.066406 46.105469 10.046875 45.074219 C 9.796875 44.816406 9.550781 44.554688 9.300781 44.292969 C 9.179688 44.164062 9.0625 44.023438 8.941406 43.894531 C 8.898438 43.839844 8.855469 43.785156 8.8125 43.742188 C 8.832031 43.773438 8.726562 43.644531 8.691406 43.601562 C 8.226562 43.035156 7.78125 42.460938 7.359375 41.863281 C 6.535156 40.683594 5.796875 39.433594 5.179688 38.132812 C 4.863281 37.492188 4.582031 36.832031 4.332031 36.160156 C 4.265625 36.007812 4.214844 35.84375 4.160156 35.683594 C 4.125 35.597656 4.105469 35.519531 4.074219 35.433594 C 4.0625 35.390625 4.039062 35.347656 4.027344 35.304688 C 3.921875 34.96875 3.8125 34.621094 3.714844 34.273438 C 3.3125 32.882812 3.03125 31.476562 2.867188 30.03125 C 2.824219 29.664062 2.792969 29.285156 2.769531 28.914062 C 2.761719 28.742188 2.75 28.578125 2.738281 28.40625 C 2.738281 28.320312 2.726562 28.222656 2.726562 28.132812 C 2.726562 28.125 2.726562 28.113281 2.726562 28.101562 C 2.726562 28.070312 2.726562 28.046875 2.726562 28.015625 C 2.707031 27.277344 2.726562 26.550781 2.769531 25.8125 C 2.8125 25.074219 2.890625 24.339844 3 23.601562 C 3.054688 23.222656 3.117188 22.84375 3.195312 22.460938 L 3.195312 22.441406 C 3.214844 22.34375 3.238281 22.257812 3.25 22.160156 C 3.292969 21.964844 3.335938 21.769531 3.378906 21.574219 C 3.5625 20.824219 3.769531 20.085938 4.019531 19.371094 C 4.136719 19.011719 4.265625 18.644531 4.410156 18.285156 C 4.472656 18.125 4.539062 17.960938 4.605469 17.796875 C 4.613281 17.789062 4.613281 17.765625 4.625 17.753906 C 4.667969 17.65625 4.710938 17.558594 4.753906 17.460938 C 5.058594 16.78125 5.382812 16.105469 5.753906 15.445312 C 5.925781 15.121094 6.121094 14.792969 6.304688 14.480469 C 6.382812 14.351562 6.457031 14.242188 6.535156 14.113281 C 6.535156 14.113281 6.535156 14.121094 6.523438 14.121094 C 6.535156 14.101562 6.546875 14.078125 6.554688 14.066406 C 6.546875 14.078125 6.535156 14.101562 6.535156 14.113281 C 6.554688 14.078125 6.578125 14.058594 6.589844 14.023438 C 6.589844 14.015625 6.597656 14.015625 6.597656 14.003906 C 6.621094 13.96875 6.644531 13.9375 6.652344 13.917969 C 6.695312 13.851562 6.730469 13.796875 6.773438 13.730469 C 7.183594 13.125 7.617188 12.539062 8.074219 11.964844 C 8.300781 11.683594 8.539062 11.398438 8.777344 11.128906 C 8.867188 11.03125 8.941406 10.945312 9.027344 10.847656 C 9.050781 10.835938 9.105469 10.761719 9.117188 10.75 C 9.179688 10.671875 9.257812 10.597656 9.320312 10.53125 C 9.832031 10 10.351562 9.492188 10.90625 9.015625 C 11.175781 8.777344 11.445312 8.546875 11.730469 8.320312 C 11.859375 8.210938 11.988281 8.113281 12.121094 8.003906 C 12.128906 7.996094 12.207031 7.941406 12.25 7.90625 C 12.304688 7.875 12.359375 7.832031 12.378906 7.808594 C 13.53125 6.953125 14.753906 6.207031 16.023438 5.554688 C 16.101562 5.511719 16.1875 5.476562 16.261719 5.433594 C 16.296875 5.425781 16.316406 5.402344 16.347656 5.390625 C 16.492188 5.328125 16.640625 5.25 16.792969 5.1875 C 17.121094 5.035156 17.445312 4.894531 17.78125 4.761719 C 18.453125 4.492188 19.136719 4.242188 19.832031 4.023438 C 20.175781 3.917969 20.515625 3.820312 20.859375 3.722656 C 21.023438 3.679688 21.1875 3.636719 21.347656 3.589844 C 21.4375 3.570312 21.523438 3.546875 21.609375 3.527344 C 21.652344 3.515625 21.695312 3.503906 21.738281 3.492188 C 22.445312 3.34375 23.160156 3.210938 23.875 3.113281 C 25.320312 2.917969 26.78125 2.84375 28.234375 2.898438 C 28.421875 2.90625 28.605469 2.90625 28.789062 2.917969 C 28.863281 2.917969 28.953125 2.929688 29.027344 2.929688 C 29.070312 2.929688 29.101562 2.929688 29.148438 2.941406 C 29.15625 2.941406 29.167969 2.941406 29.179688 2.941406 C 29.546875 2.972656 29.917969 3.003906 30.285156 3.050781 C 31.035156 3.148438 31.769531 3.265625 32.5 3.417969 C 34.039062 3.742188 35.535156 4.210938 36.988281 4.804688 C 37.355469 4.957031 37.714844 5.121094 38.074219 5.285156 C 38.117188 5.304688 38.160156 5.328125 38.203125 5.347656 C 38.214844 5.347656 38.246094 5.371094 38.277344 5.382812 C 38.300781 5.390625 38.332031 5.402344 38.34375 5.414062 C 38.386719 5.433594 38.429688 5.457031 38.472656 5.476562 C 38.660156 5.574219 38.84375 5.664062 39.027344 5.761719 C 39.710938 6.128906 40.382812 6.519531 41.035156 6.941406 C 42.3125 7.777344 43.527344 8.742188 44.632812 9.796875 C 45.1875 10.316406 45.71875 10.867188 46.21875 11.433594 C 46.28125 11.507812 46.347656 11.574219 46.402344 11.648438 C 46.421875 11.671875 46.445312 11.703125 46.46875 11.726562 C 46.476562 11.734375 46.476562 11.734375 46.488281 11.746094 C 46.609375 11.886719 46.726562 12.039062 46.847656 12.179688 C 47.097656 12.484375 47.335938 12.789062 47.5625 13.101562 C 48.453125 14.316406 49.242188 15.609375 49.925781 16.964844 C 50.273438 17.648438 50.578125 18.351562 50.859375 19.058594 C 51 19.402344 51.128906 19.75 51.25 20.109375 L 51.25 20.097656 C 51.25 20.109375 51.25 20.109375 51.261719 20.121094 C 51.261719 20.128906 51.269531 20.164062 51.28125 20.175781 C 51.292969 20.195312 51.292969 20.207031 51.304688 20.226562 C 51.324219 20.304688 51.359375 20.378906 51.378906 20.464844 C 51.445312 20.660156 51.5 20.847656 51.554688 21.042969 C 51.988281 22.496094 52.289062 23.980469 52.464844 25.476562 C 52.507812 25.855469 52.550781 26.246094 52.574219 26.628906 C 52.582031 26.722656 52.582031 26.8125 52.582031 26.910156 C 52.582031 26.941406 52.582031 26.972656 52.582031 26.996094 C 52.582031 27.191406 52.582031 27.386719 52.582031 27.582031 C 52.574219 28.265625 52.519531 28.957031 52.398438 29.640625 C 52.386719 29.71875 52.367188 29.804688 52.355469 29.878906 L 52.355469 29.890625 C 52.324219 30.054688 52.289062 30.207031 52.246094 30.359375 C 52.171875 30.660156 52.085938 30.953125 51.988281 31.246094 C 51.945312 31.386719 51.890625 31.527344 51.835938 31.671875 C 51.8125 31.734375 51.792969 31.789062 51.757812 31.855469 C 51.757812 31.855469 51.757812 31.855469 51.757812 31.867188 C 51.640625 32.136719 51.519531 32.40625 51.378906 32.667969 C 51.25 32.917969 51.109375 33.167969 50.957031 33.40625 C 50.945312 33.417969 50.933594 33.4375 50.925781 33.46875 C 50.914062 33.480469 50.914062 33.492188 50.902344 33.503906 C 50.816406 33.621094 50.738281 33.742188 50.652344 33.859375 C 50.492188 34.078125 50.328125 34.292969 50.15625 34.511719 C 50.078125 34.609375 49.992188 34.707031 49.90625 34.804688 C 49.871094 34.847656 49.828125 34.890625 49.796875 34.921875 C 49.449219 35.292969 49.082031 35.648438 48.691406 35.988281 C 48.503906 36.148438 48.3125 36.300781 48.117188 36.464844 C 48.148438 36.441406 48.167969 36.421875 48.167969 36.421875 C 48.148438 36.453125 48.082031 36.484375 48.050781 36.519531 L 48.039062 36.527344 C 47.972656 36.582031 48.007812 36.550781 48.050781 36.519531 C 48.039062 36.519531 48.039062 36.527344 48.027344 36.527344 C 47.929688 36.605469 47.832031 36.667969 47.726562 36.746094 C 46.964844 37.277344 46.164062 37.742188 45.339844 38.167969 C 45.316406 38.175781 45.296875 38.1875 45.285156 38.199219 C 45.199219 38.242188 45.101562 38.285156 45.011719 38.328125 C 44.828125 38.414062 44.644531 38.492188 44.460938 38.578125 C 44.136719 38.71875 43.820312 38.851562 43.484375 38.96875 C 43.019531 39.140625 42.539062 39.304688 42.0625 39.445312 C 41.910156 39.488281 41.761719 39.53125 41.609375 39.578125 C 41.542969 39.585938 41.488281 39.597656 41.421875 39.609375 C 41.316406 39.628906 41.207031 39.640625 41.085938 39.652344 C 41.042969 39.652344 41 39.652344 40.96875 39.652344 C 40.914062 39.640625 40.847656 39.640625 40.792969 39.621094 L 40.785156 39.621094 C 40.785156 39.609375 40.773438 39.597656 40.773438 39.585938 C 40.773438 39.585938 40.773438 39.585938 40.773438 39.578125 L 40.773438 39.566406 C 40.773438 39.554688 40.773438 39.554688 40.773438 39.542969 C 40.773438 39.542969 40.773438 39.53125 40.773438 39.53125 C 40.773438 39.53125 40.773438 39.523438 40.785156 39.511719 C 40.785156 39.5 40.785156 39.488281 40.792969 39.480469 C 40.792969 39.480469 40.792969 39.488281 40.792969 39.5 C 40.792969 39.480469 40.792969 39.457031 40.804688 39.433594 C 40.816406 39.414062 40.816406 39.390625 40.828125 39.371094 C 40.882812 39.1875 40.9375 39 41 38.816406 C 41.035156 38.71875 41.066406 38.632812 41.109375 38.535156 C 41.132812 38.480469 41.152344 38.4375 41.175781 38.382812 C 41.183594 38.371094 41.195312 38.339844 41.207031 38.308594 L 41.207031 38.296875 C 41.230469 38.242188 41.25 38.1875 41.273438 38.132812 C 41.328125 38.015625 41.371094 37.894531 41.421875 37.777344 C 41.554688 37.460938 41.683594 37.15625 41.8125 36.84375 C 42 36.386719 42.171875 35.933594 42.3125 35.464844 C 42.59375 34.5 42.789062 33.363281 42.300781 32.417969 C 41.945312 31.734375 41.316406 31.136719 40.535156 31.007812 C 39.625 30.855469 38.765625 31.160156 37.964844 31.574219 C 37.117188 32.007812 36.347656 32.613281 35.632812 33.242188 C 34.820312 33.957031 34.070312 34.738281 33.34375 35.542969 C 32.953125 35.976562 32.5625 36.421875 32.183594 36.863281 C 32.5 36.148438 32.8125 35.433594 33.136719 34.726562 C 33.179688 34.628906 33.226562 34.542969 33.269531 34.445312 C 35.1875 32.90625 36.964844 31.214844 38.605469 29.371094 C 40.394531 27.34375 42 25.121094 43.257812 22.734375 C 43.746094 21.8125 44.167969 20.867188 44.515625 19.890625 C 44.765625 19.175781 44.980469 18.429688 45.058594 17.679688 C 45.109375 17.179688 45.121094 16.5625 44.839844 16.117188 C 44.503906 15.585938 43.875 15.554688 43.332031 15.769531 C 42.550781 16.085938 41.945312 16.703125 41.390625 17.320312 C 40.773438 18.003906 40.230469 18.742188 39.699219 19.5 C 38.234375 21.59375 36.933594 23.808594 35.699219 26.042969 C 34.417969 28.339844 33.214844 30.671875 32.074219 33.046875 C 32.019531 33.15625 31.976562 33.265625 31.921875 33.363281 C 31.890625 33.382812 31.859375 33.417969 31.824219 33.4375 C 31.804688 33.449219 31.792969 33.460938 31.78125 33.46875 C 31.066406 34.011719 30.328125 34.535156 29.570312 35.019531 C 29.417969 35.117188 29.253906 35.207031 29.09375 35.28125 C 29.015625 35.3125 28.953125 35.359375 28.875 35.390625 C 28.832031 35.410156 28.789062 35.433594 28.746094 35.457031 C 28.386719 35.628906 28.03125 35.800781 27.660156 35.964844 C 26.023438 36.714844 24.351562 37.394531 22.640625 37.972656 C 21.71875 38.285156 20.796875 38.566406 19.851562 38.816406 C 19.625 38.871094 19.40625 38.9375 19.179688 38.992188 C 19.0625 39.023438 18.941406 39.042969 18.820312 39.078125 C 18.757812 39.089844 18.703125 39.109375 18.636719 39.121094 C 18.617188 39.121094 18.605469 39.132812 18.59375 39.132812 C 18.59375 39.132812 18.582031 39.132812 18.574219 39.132812 C 18.085938 39.230469 17.597656 39.335938 17.109375 39.425781 C 16.152344 39.585938 15.1875 39.726562 14.222656 39.78125 C 13.941406 39.804688 13.660156 39.804688 13.378906 39.792969 C 13.367188 39.792969 13.34375 39.792969 13.324219 39.792969 C 13.269531 39.792969 13.214844 39.792969 13.191406 39.78125 C 13.191406 39.78125 13.191406 39.78125 13.214844 39.78125 C 13.097656 39.773438 12.976562 39.75 12.855469 39.726562 C 12.652344 39.695312 12.445312 39.640625 12.25 39.578125 C 12.175781 39.542969 12.097656 39.511719 12.023438 39.480469 C 11.988281 39.457031 11.957031 39.445312 11.925781 39.425781 C 11.785156 39.335938 11.652344 39.238281 11.523438 39.132812 C 11.5 39.109375 11.492188 39.097656 11.46875 39.078125 C 11.46875 39.078125 11.46875 39.089844 11.46875 39.089844 C 11.46875 39.089844 11.46875 39.097656 11.480469 39.097656 C 11.480469 39.097656 11.480469 39.097656 11.46875 39.089844 C 11.46875 39.078125 11.457031 39.078125 11.457031 39.066406 C 11.445312 39.054688 11.4375 39.042969 11.425781 39.035156 C 11.394531 39 11.382812 38.96875 11.382812 38.957031 C 11.371094 38.9375 11.347656 38.925781 11.339844 38.902344 C 11.261719 38.785156 11.207031 38.65625 11.15625 38.535156 C 11.144531 38.511719 11.144531 38.492188 11.132812 38.46875 C 11.109375 38.394531 11.101562 38.316406 11.089844 38.230469 C 11.078125 38.15625 11.066406 38.089844 11.066406 38.015625 C 11.066406 37.992188 11.066406 37.972656 11.066406 37.949219 C 11.066406 37.777344 11.089844 37.589844 11.109375 37.417969 C 11.109375 37.394531 11.121094 37.363281 11.121094 37.34375 C 11.144531 37.265625 11.15625 37.191406 11.175781 37.113281 C 11.230469 36.917969 11.296875 36.734375 11.359375 36.539062 C 11.359375 36.527344 11.371094 36.507812 11.371094 36.496094 C 12.5625 36.550781 13.746094 36.300781 14.875 35.921875 C 16.207031 35.464844 17.5 34.792969 18.574219 33.871094 C 19.496094 33.078125 20.546875 31.734375 20.035156 30.457031 C 19.691406 29.578125 18.605469 29.273438 17.75 29.25 C 16.828125 29.230469 15.925781 29.597656 15.125 30.023438 C 14.246094 30.488281 13.441406 31.128906 12.726562 31.820312 C 11.21875 33.296875 9.875 35.152344 9.289062 37.203125 C 9.050781 38.027344 8.910156 38.980469 9.160156 39.816406 C 9.417969 40.695312 9.984375 41.289062 10.808594 41.660156 C 11.835938 42.113281 13.050781 42.058594 14.136719 41.960938 C 16.230469 41.757812 18.3125 41.324219 20.328125 40.746094 C 22.207031 40.214844 24.039062 39.554688 25.828125 38.804688 C 26.621094 38.46875 27.410156 38.121094 28.191406 37.753906 C 28.617188 37.558594 29.039062 37.351562 29.449219 37.148438 C 29.808594 36.972656 30.132812 36.746094 30.46875 36.519531 C 30.144531 37.265625 29.839844 38.027344 29.570312 38.785156 C 29.363281 39.335938 29.15625 39.933594 29.09375 40.53125 C 29.058594 40.84375 29.082031 41.246094 29.351562 41.464844 C 29.777344 41.800781 30.371094 41.429688 30.699219 41.128906 C 31.140625 40.726562 31.511719 40.238281 31.878906 39.78125 C 32.421875 39.121094 32.964844 38.460938 33.515625 37.808594 C 33.820312 37.449219 34.136719 37.09375 34.449219 36.746094 C 34.449219 36.734375 34.460938 36.734375 34.484375 36.714844 C 34.472656 36.722656 34.460938 36.734375 34.449219 36.746094 C 34.429688 36.765625 34.515625 36.679688 34.558594 36.625 C 34.570312 36.617188 34.589844 36.59375 34.601562 36.570312 C 34.679688 36.484375 34.765625 36.398438 34.839844 36.324219 C 35.015625 36.136719 35.199219 35.953125 35.382812 35.769531 C 35.742188 35.410156 36.097656 35.066406 36.476562 34.738281 C 36.664062 34.578125 36.847656 34.425781 37.03125 34.273438 C 37.0625 34.25 37.097656 34.21875 37.128906 34.195312 C 37.203125 34.144531 37.28125 34.089844 37.355469 34.035156 C 37.53125 33.914062 37.714844 33.796875 37.898438 33.6875 C 37.984375 33.632812 38.074219 33.589844 38.160156 33.546875 C 38.179688 33.535156 38.214844 33.515625 38.234375 33.503906 C 38.386719 33.425781 38.550781 33.371094 38.710938 33.320312 C 38.789062 33.296875 38.875 33.273438 38.949219 33.253906 C 38.875 33.273438 38.820312 33.296875 38.800781 33.308594 C 38.84375 33.296875 38.941406 33.265625 38.996094 33.265625 C 39.070312 33.253906 39.144531 33.253906 39.222656 33.242188 C 39.242188 33.242188 39.265625 33.242188 39.289062 33.242188 C 39.429688 33.265625 39.558594 33.285156 39.6875 33.339844 L 39.699219 33.339844 C 39.65625 33.320312 39.632812 33.296875 39.710938 33.339844 L 39.722656 33.351562 C 39.730469 33.363281 39.742188 33.363281 39.753906 33.363281 C 39.742188 33.363281 39.730469 33.351562 39.730469 33.351562 C 39.753906 33.363281 39.773438 33.371094 39.785156 33.371094 C 39.773438 33.371094 39.765625 33.371094 39.753906 33.363281 C 39.808594 33.394531 39.851562 33.425781 39.90625 33.46875 C 39.96875 33.515625 40.023438 33.566406 40.089844 33.621094 C 40.113281 33.644531 40.132812 33.664062 40.15625 33.6875 C 40.261719 33.839844 40.371094 33.992188 40.457031 34.164062 C 40.46875 34.195312 40.480469 34.230469 40.503906 34.261719 C 40.523438 34.347656 40.546875 34.4375 40.554688 34.523438 C 40.554688 34.554688 40.566406 34.585938 40.566406 34.621094 C 40.566406 34.71875 40.554688 34.816406 40.554688 34.914062 C 40.523438 35.042969 40.511719 35.140625 40.492188 35.238281 Z M 39.9375 36.898438 C 39.9375 36.886719 39.949219 36.875 39.949219 36.863281 C 39.960938 36.863281 39.949219 36.875 39.9375 36.898438 Z M 41.023438 39.695312 C 41.011719 39.695312 41 39.695312 40.988281 39.683594 C 41 39.683594 41.011719 39.683594 41.023438 39.695312 Z M 40.96875 39.683594 C 40.804688 39.683594 40.882812 39.675781 40.96875 39.683594 Z M 36.476562 28.070312 C 37.097656 26.917969 37.726562 25.78125 38.375 24.664062 C 38.691406 24.132812 39.003906 23.601562 39.320312 23.070312 C 39.472656 22.820312 39.632812 22.558594 39.785156 22.308594 C 39.863281 22.191406 39.9375 22.0625 40.015625 21.941406 C 40.035156 21.910156 40.058594 21.875 40.066406 21.84375 C 40.066406 21.832031 40.078125 21.832031 40.078125 21.824219 C 40.632812 20.964844 41.207031 20.121094 41.835938 19.316406 C 42.074219 19.003906 42.324219 18.710938 42.585938 18.417969 C 42.636719 18.351562 42.703125 18.296875 42.769531 18.234375 C 42.855469 18.15625 42.929688 18.082031 43.019531 18.003906 C 43.019531 18.027344 43.019531 18.039062 43.027344 18.058594 C 43.027344 18.082031 43.027344 18.101562 43.039062 18.125 C 43.039062 18.144531 43.039062 18.15625 43.039062 18.15625 C 43.027344 18.210938 43.027344 18.265625 43.019531 18.296875 C 43.007812 18.429688 42.996094 18.558594 42.976562 18.6875 C 42.964844 18.742188 42.929688 18.816406 42.929688 18.882812 C 42.898438 19.046875 42.855469 19.207031 42.800781 19.371094 C 42.691406 19.738281 42.5625 20.109375 42.433594 20.46875 C 42.398438 20.542969 42.367188 20.628906 42.335938 20.707031 C 42.324219 20.738281 42.300781 20.78125 42.292969 20.8125 C 42.195312 21.03125 42.097656 21.257812 41.988281 21.476562 C 41.519531 22.453125 40.988281 23.382812 40.414062 24.296875 C 40.382812 24.347656 40.351562 24.402344 40.308594 24.457031 C 40.21875 24.589844 40.132812 24.71875 40.046875 24.847656 C 39.863281 25.109375 39.6875 25.367188 39.492188 25.628906 C 39.101562 26.171875 38.691406 26.714844 38.257812 27.234375 C 38.027344 27.503906 37.800781 27.789062 37.574219 28.046875 C 37.453125 28.1875 37.335938 28.320312 37.214844 28.460938 C 37.152344 28.523438 37.097656 28.601562 37.03125 28.664062 C 37.007812 28.6875 36.921875 28.785156 36.878906 28.828125 C 36.859375 28.851562 36.847656 28.859375 36.835938 28.871094 C 36.769531 28.9375 36.707031 29.011719 36.640625 29.078125 C 36.5 29.230469 36.359375 29.371094 36.21875 29.523438 C 35.945312 29.804688 35.664062 30.074219 35.382812 30.347656 C 35.296875 30.433594 35.199219 30.519531 35.113281 30.605469 C 35.589844 29.761719 36.035156 28.914062 36.476562 28.070312 Z M 18.160156 32.125 C 18.160156 32.113281 18.160156 32.113281 18.160156 32.105469 C 18.160156 32.113281 18.160156 32.125 18.160156 32.125 C 18.160156 32.148438 18.160156 32.15625 18.160156 32.167969 C 18.160156 32.15625 18.160156 32.148438 18.160156 32.125 Z M 18.128906 32.113281 C 18.105469 32.203125 18.117188 32.15625 18.128906 32.113281 Z M 18.117188 32.070312 C 18.117188 32.058594 18.117188 32.070312 18.117188 32.070312 Z M 13.246094 33.675781 C 13.269531 33.65625 13.289062 33.632812 13.3125 33.613281 C 13.386719 33.523438 13.464844 33.449219 13.550781 33.363281 C 13.714844 33.199219 13.886719 33.046875 14.0625 32.894531 C 14.148438 32.820312 14.234375 32.742188 14.320312 32.679688 C 14.355469 32.644531 14.386719 32.625 14.429688 32.59375 C 14.582031 32.484375 14.746094 32.363281 14.90625 32.265625 C 15.089844 32.148438 15.277344 32.039062 15.472656 31.941406 C 15.480469 31.929688 15.503906 31.929688 15.515625 31.917969 C 15.601562 31.875 15.6875 31.84375 15.785156 31.800781 C 15.957031 31.734375 16.144531 31.671875 16.316406 31.617188 C 16.328125 31.617188 16.339844 31.605469 16.359375 31.605469 C 16.445312 31.59375 16.535156 31.574219 16.621094 31.5625 C 16.75 31.550781 16.890625 31.550781 17.023438 31.550781 C 17.03125 31.550781 17.03125 31.550781 17.042969 31.550781 C 17.074219 31.550781 17.128906 31.550781 17.171875 31.5625 C 17.261719 31.574219 17.347656 31.59375 17.421875 31.617188 C 17.5 31.636719 17.5625 31.660156 17.640625 31.691406 C 17.671875 31.703125 17.703125 31.714844 17.738281 31.722656 L 17.75 31.734375 C 17.835938 31.789062 17.910156 31.832031 17.988281 31.898438 C 18.019531 31.917969 18.042969 31.941406 18.0625 31.972656 C 18.0625 31.972656 18.0625 31.972656 18.0625 31.984375 C 18.074219 31.984375 18.09375 32.007812 18.105469 32.039062 L 18.09375 32.050781 C 18.09375 32.050781 18.09375 32.050781 18.09375 32.058594 C 18.074219 32.082031 18.050781 32.113281 18.03125 32.136719 C 18.03125 32.136719 18.019531 32.148438 18.019531 32.148438 L 18.007812 32.15625 C 17.953125 32.222656 17.847656 32.320312 17.921875 32.234375 C 17.847656 32.300781 17.769531 32.375 17.695312 32.441406 C 17.652344 32.484375 17.597656 32.515625 17.554688 32.558594 C 17.457031 32.625 17.367188 32.691406 17.269531 32.753906 C 17.03125 32.917969 16.78125 33.058594 16.523438 33.199219 C 16.457031 33.230469 16.382812 33.273438 16.316406 33.308594 C 16.304688 33.308594 16.304688 33.320312 16.296875 33.320312 C 16.261719 33.328125 16.144531 33.394531 16.121094 33.40625 C 16.046875 33.4375 15.96875 33.46875 15.90625 33.503906 C 15.613281 33.632812 15.320312 33.742188 15.015625 33.839844 C 14.722656 33.9375 14.429688 34.023438 14.125 34.097656 L 14.113281 34.097656 C 14.105469 34.097656 14.09375 34.109375 14.082031 34.109375 C 14.0625 34.109375 14.039062 34.121094 14.027344 34.121094 C 13.972656 34.132812 13.910156 34.144531 13.855469 34.152344 C 13.703125 34.1875 13.5625 34.207031 13.410156 34.230469 C 13.183594 34.261719 12.964844 34.285156 12.738281 34.292969 C 12.910156 34.089844 13.085938 33.894531 13.246094 33.675781 Z M 13.246094 33.675781 " fill-opacity="1" fill-rule="nonzero"/></g></svg>